<?xml version="1.0" standalone="no"?>
<!DOCTYPE svg PUBLIC "-//W3C//DTD SVG 20010904//EN"
 "http://www.w3.org/TR/2001/REC-SVG-20010904/DTD/svg10.dtd">
<svg version="1.0" xmlns="http://www.w3.org/2000/svg"
 width="300.000000pt" height="301.000000pt" viewBox="0 0 300.000000 301.000000"
 preserveAspectRatio="xMidYMid meet">
<metadata>
Created by potrace 1.10, written by Peter Selinger 2001-2011
</metadata>
<g transform="translate(0.000000,301.000000) scale(0.100000,-0.100000)"
fill="#000000" stroke="none">
<path d="M1396 2893 l-39 -4 7 -67 c3 -37 6 -91 6 -119 l0 -53 55 0 c52 0 55
1 55 25 0 20 -5 25 -25 25 -21 0 -25 5 -25 30 0 23 4 30 20 30 13 0 20 7 20
20 0 15 -7 20 -25 20 -20 0 -25 5 -25 25 0 20 5 25 26 25 20 0 25 4 20 16 -3
9 -6 20 -6 25 0 5 -6 8 -12 7 -7 -1 -30 -3 -52 -5z"/>
<path d="M1576 2808 c-4 -51 -9 -108 -12 -125 -6 -31 -5 -33 24 -33 25 0 30 5
36 31 3 17 6 43 6 56 0 18 4 24 15 19 10 -4 15 1 15 14 0 20 11 26 23 13 4 -3
-1 -16 -12 -27 -10 -12 -21 -40 -23 -63 -3 -40 -2 -43 25 -49 16 -3 30 -4 31
-2 2 1 7 55 13 118 11 119 8 130 -29 130 -12 0 -19 -12 -24 -45 -3 -25 -11
-45 -16 -45 -6 0 -8 20 -6 45 2 26 -1 45 -7 45 -5 0 -19 3 -31 6 -20 5 -21 1
-28 -88z"/>
<path d="M1207 2868 c-36 -13 -43 -44 -28 -129 18 -101 63 -145 105 -104 8 8
21 12 30 9 26 -10 35 4 26 39 -4 17 -11 45 -14 60 -6 26 -10 28 -39 22 -41 -9
-40 -7 -21 -42 17 -30 13 -76 -6 -57 -7 8 -30 102 -34 144 -2 25 19 27 22 3 3
-18 10 -23 31 -23 15 0 30 3 34 6 12 12 -16 66 -40 75 -28 11 -30 11 -66 -3z"/>
<path d="M1758 2753 c-14 -65 -25 -119 -24 -119 0 -1 16 -5 34 -9 29 -6 32 -4
32 17 0 13 11 67 24 120 l23 97 -21 5 c-12 3 -26 6 -31 6 -6 0 -23 -53 -37
-117z"/>
<path d="M1078 2833 c-16 -4 -17 -7 -2 -41 8 -20 23 -46 33 -57 19 -21 34 -75
21 -75 -4 0 -13 7 -20 15 -27 32 -28 13 -2 -30 26 -43 44 -53 68 -37 14 8 -55
232 -71 231 -5 -1 -18 -3 -27 -6z"/>
<path d="M1902 2821 c-18 -11 -62 -134 -62 -171 0 -35 26 -63 55 -58 11 3 27
-1 33 -9 21 -22 28 -15 50 44 23 62 21 68 -20 78 -28 7 -33 1 -29 -32 3 -21
-20 -56 -30 -46 -12 12 40 165 55 160 11 -5 12 -11 1 -38 -4 -12 1 -18 20 -23
34 -9 45 -1 45 34 0 53 -73 90 -118 61z"/>
<path d="M993 2802 c-9 -6 -2 -36 26 -117 35 -99 42 -110 62 -107 13 1 24 4
27 6 5 5 -26 65 -49 95 -30 38 -22 80 9 49 24 -24 20 -1 -6 40 -26 41 -44 50
-69 34z"/>
<path d="M2041 2664 c-29 -58 -52 -107 -50 -108 2 -2 14 -9 26 -15 21 -11 25
-8 45 34 12 25 28 45 35 45 17 0 17 0 -12 -52 l-25 -45 26 -18 c14 -9 27 -15
29 -13 1 2 26 50 55 107 49 98 51 106 34 118 -29 21 -40 15 -57 -29 -13 -31
-20 -39 -28 -31 -9 9 -6 21 10 49 21 35 21 37 4 50 -10 7 -22 13 -28 14 -5 0
-34 -48 -64 -106z m69 -16 c0 -6 9 -8 20 -5 13 3 20 0 20 -8 0 -23 -18 -27
-43 -10 -13 8 -27 12 -30 8 -4 -3 -7 0 -7 9 0 8 3 17 6 21 8 8 34 -3 34 -15z"/>
<path d="M858 2740 l-37 -20 36 -98 c19 -53 38 -105 40 -114 6 -21 7 -21 36
-5 12 6 23 13 25 14 2 1 -1 10 -7 22 -14 25 5 40 22 17 10 -13 12 -7 12 36 -1
44 -7 62 -39 111 -21 31 -42 57 -45 57 -3 -1 -23 -10 -43 -20z m59 -81 c31
-48 31 -51 14 -68 -17 -17 -18 -17 -18 11 0 16 -9 42 -21 58 -12 16 -22 34
-22 40 0 22 16 8 47 -41z"/>
<path d="M682 2632 c-23 -15 -40 -32 -38 -37 2 -6 33 -52 69 -103 l65 -92 23
19 24 19 -33 45 c-18 25 -28 48 -23 52 5 3 22 -12 37 -32 43 -58 42 -58 63
-39 20 18 20 19 -10 62 -16 24 -36 44 -44 44 -9 0 -15 10 -15 23 0 28 -34 67
-58 67 -9 0 -36 -13 -60 -28z m64 -39 c17 -22 17 -33 3 -33 -12 0 -38 29 -39
43 0 14 23 7 36 -10z"/>
<path d="M1000 2618 c-1 -2 -2 -43 -4 -93 -3 -62 -15 -133 -40 -228 -20 -77
-36 -162 -36 -193 0 -67 31 -164 71 -219 59 -83 187 -163 292 -185 66 -13 73
-26 20 -35 -58 -10 -62 -12 -69 -40 -11 -45 3 -48 134 -35 120 13 159 10 147
-11 -10 -16 4 -76 21 -94 19 -19 86 -20 123 -1 24 13 63 52 113 113 14 18 32
22 135 27 65 4 156 10 203 14 81 7 85 8 88 32 2 14 -3 33 -10 42 -12 16 -27
16 -190 6 -97 -6 -183 -8 -191 -5 -8 3 -21 23 -27 44 -33 99 -93 132 -301 163
-194 28 -256 50 -323 111 -89 81 -99 112 -100 324 -2 166 -3 183 -24 223 -19
36 -31 50 -32 40z m28 -279 c-7 -98 -5 -133 7 -175 15 -51 66 -129 109 -166
62 -54 163 -87 296 -98 135 -11 229 -41 275 -89 19 -19 35 -43 35 -52 0 -10
12 -32 27 -49 26 -32 26 -32 102 -26 73 5 242 10 269 7 6 0 12 -8 12 -16 0
-12 -17 -15 -92 -15 -51 -1 -137 -5 -191 -9 l-99 -8 -67 -71 c-62 -68 -69 -72
-109 -72 -36 0 -44 4 -52 26 -6 14 -10 35 -10 46 0 11 -10 29 -22 40 -19 16
-32 19 -73 14 -149 -17 -165 -18 -165 -7 0 6 11 13 24 17 14 3 32 15 42 25 17
19 17 21 -2 38 -10 10 -50 28 -88 40 -109 35 -228 127 -269 208 -27 54 -39
131 -34 221 3 48 7 94 9 102 9 43 63 198 68 195 3 -2 2 -59 -2 -126z"/>
<path d="M2306 2604 c-34 -33 -38 -54 -22 -95 18 -43 9 -79 -19 -79 -19 0 -19
9 0 30 13 15 13 19 -8 38 l-24 22 -18 -35 c-19 -34 -19 -35 1 -62 26 -34 68
-51 92 -37 9 6 25 25 34 44 15 30 15 37 2 68 -16 39 -11 72 12 72 16 0 18 -12
4 -26 -7 -7 -4 -16 10 -29 16 -14 22 -15 35 -5 23 19 18 54 -11 84 -30 29 -65
34 -88 10z"/>
<path d="M1379 2580 c-80 -10 -174 -33 -251 -61 l-58 -21 0 -94 c0 -52 2 -94
5 -94 3 0 16 6 28 14 18 11 132 54 195 72 9 3 7 16 -8 56 -20 52 -15 78 15 78
16 0 81 -71 89 -96 5 -17 18 -19 128 -20 77 -1 148 -7 190 -17 342 -83 602
-328 704 -662 25 -82 28 -105 28 -255 1 -128 -3 -179 -17 -228 -80 -291 -261
-511 -521 -633 -85 -40 -216 -79 -265 -79 -55 0 -71 -10 -64 -41 7 -37 -49
-113 -77 -104 -10 3 -21 1 -25 -5 -10 -17 -44 -11 -55 9 -15 30 -12 92 6 112
15 17 15 18 -7 22 -151 28 -200 40 -269 70 -122 53 -184 94 -277 181 -95 89
-154 167 -206 272 -23 46 -43 73 -56 77 -22 5 -28 35 -12 53 5 5 1 46 -11 99
-25 117 -20 312 10 427 43 160 120 294 244 424 43 45 78 90 78 100 0 10 14 62
29 114 16 52 27 97 26 98 -8 9 -164 -107 -231 -170 -129 -123 -228 -276 -284
-440 -48 -143 -55 -191 -54 -373 1 -150 4 -182 27 -268 187 -701 965 -1043
1602 -703 268 142 472 401 552 701 24 91 27 116 27 280 0 163 -3 189 -27 278
-112 416 -437 723 -862 813 -87 18 -258 25 -346 14z m341 -46 c78 -16 221 -62
230 -74 3 -4 22 -13 43 -21 20 -7 37 -16 37 -19 0 -4 16 -12 35 -20 19 -8 35
-17 35 -20 0 -4 10 -11 23 -17 42 -19 170 -139 236 -222 71 -89 152 -240 179
-336 41 -144 47 -189 46 -345 0 -135 -4 -168 -27 -253 -26 -94 -110 -288 -128
-295 -5 -2 -9 -9 -9 -16 0 -34 -178 -226 -270 -292 -87 -62 -236 -140 -297
-155 -18 -5 -50 -14 -70 -20 -67 -19 -174 -37 -194 -32 -23 6 -24 16 -4 37 8
8 15 23 15 33 0 30 20 43 65 43 23 0 45 4 50 9 6 5 24 11 40 12 17 2 35 6 40
10 6 3 28 12 50 19 203 64 408 240 520 446 32 61 84 203 103 283 14 60 15 274
2 341 -6 30 -13 66 -15 80 -7 51 -85 246 -104 260 -3 3 -12 17 -20 32 -8 15
-21 36 -30 45 -9 10 -34 40 -56 67 -22 27 -67 71 -100 98 -33 27 -69 57 -80
66 -29 24 -150 85 -220 111 -79 30 -232 57 -334 60 -46 1 -88 4 -94 7 -14 5
-57 69 -57 83 0 23 242 19 360 -5z m-462 -56 c6 -24 7 -47 2 -53 -11 -14 -148
-61 -155 -53 -3 3 -8 21 -12 41 -6 41 11 61 79 89 65 26 74 24 86 -24z m-335
-130 c-19 -95 -27 -109 -97 -181 -99 -102 -134 -150 -192 -268 -92 -187 -119
-453 -68 -659 4 -14 6 -43 5 -65 -1 -30 5 -47 23 -67 14 -14 35 -48 47 -75 22
-48 64 -114 103 -163 40 -50 156 -159 203 -191 26 -18 50 -35 53 -39 10 -12
150 -76 173 -79 4 0 21 -8 37 -16 16 -8 32 -15 35 -14 15 4 131 -26 137 -35
13 -18 9 -84 -5 -89 -11 -4 -56 2 -132 17 -88 19 -250 95 -359 169 -64 43
-232 210 -242 240 -3 9 -10 17 -15 17 -5 0 -9 7 -9 15 0 8 -4 15 -10 15 -5 0
-10 6 -10 14 0 8 -3 16 -8 18 -11 4 -88 165 -102 213 -7 22 -16 48 -21 57 -5
10 -9 29 -9 44 0 14 -5 35 -11 46 -15 28 -21 274 -8 358 9 61 28 138 52 205
23 65 101 221 118 235 3 3 17 23 31 45 25 40 189 207 210 214 6 2 19 12 29 22
27 27 48 25 42 -3z"/>
<path d="M553 2530 c-12 -5 -29 -22 -37 -38 -13 -25 -13 -32 0 -58 8 -16 36
-50 62 -76 54 -56 89 -62 127 -23 41 40 33 68 -38 141 -64 65 -74 70 -114 54z
m75 -101 c46 -50 67 -87 44 -77 -18 7 -121 125 -115 132 10 9 12 7 71 -55z"/>
<path d="M1290 2506 c0 -2 7 -20 15 -39 18 -43 19 -102 4 -236 -7 -54 -9 -115
-5 -134 8 -45 63 -127 85 -127 16 0 111 88 111 103 0 4 -15 23 -34 42 -27 26
-36 46 -41 82 -15 128 -27 188 -41 216 -26 51 -64 97 -80 97 -7 0 -14 -2 -14
-4z m70 -101 c0 -12 4 -35 10 -51 5 -16 14 -67 20 -114 8 -68 16 -93 40 -128
16 -23 30 -44 30 -47 0 -13 -55 -56 -68 -53 -10 2 -28 25 -41 51 -23 47 -23
49 -11 173 11 113 9 161 -6 212 -5 14 -2 13 10 -2 9 -11 16 -30 16 -41z"/>
<path d="M2408 2437 c-73 -68 -83 -88 -63 -127 28 -54 69 -63 112 -26 l28 25
-23 23 -22 22 -16 -22 c-14 -21 -44 -31 -44 -14 0 13 114 122 128 122 18 0 15
-11 -13 -40 l-25 -26 24 -23 24 -23 27 39 c29 45 24 78 -17 107 -36 26 -59 19
-120 -37z"/>
<path d="M363 2315 c-41 -53 -42 -55 -22 -65 15 -9 24 -8 35 1 11 9 28 1 90
-46 42 -31 76 -55 77 -53 1 1 10 13 20 25 18 21 18 21 -62 79 -62 45 -78 61
-69 71 7 9 7 17 -2 28 -7 8 -15 15 -19 15 -3 0 -25 -25 -48 -55z"/>
<path d="M2546 2299 c-43 -32 -87 -64 -97 -71 -18 -13 -18 -14 0 -38 l20 -25
40 33 c44 36 51 38 51 18 0 -7 -18 -25 -40 -40 -39 -26 -40 -27 -24 -51 17
-26 29 -31 39 -15 3 5 43 35 88 66 45 32 84 59 86 60 2 2 -4 15 -13 29 l-17
26 -34 -25 c-19 -14 -38 -26 -44 -26 -22 0 -10 19 24 40 40 25 42 30 18 58
-18 20 -19 19 -97 -39z m28 -34 c-4 -9 3 -23 16 -33 l22 -17 -21 -19 c-19 -17
-19 -17 -15 1 3 10 -4 28 -15 40 -20 21 -20 23 -3 32 22 13 22 13 16 -4z"/>
<path d="M288 2203 c-30 -33 -38 -68 -21 -92 26 -38 59 -44 108 -20 34 17 46
19 64 10 23 -13 28 -31 9 -31 -7 0 -19 4 -27 9 -10 7 -19 4 -28 -7 -21 -28
-15 -41 24 -48 32 -6 40 -3 60 21 36 41 28 84 -19 110 l-38 20 -45 -24 c-37
-19 -47 -21 -60 -11 -23 19 -18 31 9 24 18 -4 27 0 36 16 14 26 12 28 -26 36
-21 4 -34 1 -46 -13z"/>
<path d="M2638 2129 c-85 -43 -100 -66 -78 -118 22 -54 49 -55 142 -8 80 40
83 43 86 79 3 29 -2 43 -22 63 -14 14 -31 25 -38 25 -7 -1 -48 -19 -90 -41z
m112 -29 c0 -10 -131 -80 -150 -80 -28 0 -3 23 58 54 70 37 92 43 92 26z"/>
<path d="M1575 2134 c-8 -9 -15 -20 -15 -25 0 -5 -30 -40 -66 -79 -37 -39 -65
-72 -63 -75 3 -2 49 -11 104 -20 156 -24 263 -86 282 -163 3 -15 9 -29 14 -32
12 -8 313 11 323 21 11 10 -17 77 -57 131 -50 70 -163 128 -479 247 -21 8 -31
7 -43 -5z m101 -50 c27 -9 54 -20 59 -24 6 -4 28 -13 50 -20 90 -29 209 -95
261 -146 46 -45 75 -96 62 -109 -7 -7 -71 -14 -156 -16 -64 -2 -81 1 -100 16
-12 11 -22 24 -22 30 0 15 -57 67 -100 92 -36 20 -141 50 -194 56 -51 6 -48
14 44 118 19 22 36 23 96 3z"/>
<path d="M196 2024 c-10 -25 -17 -47 -14 -49 2 -2 52 -24 111 -49 l107 -45 20
46 c22 51 24 63 11 63 -5 0 -16 3 -25 6 -12 4 -16 0 -16 -16 0 -18 -4 -21 -22
-16 -13 3 -27 6 -31 6 -5 0 -5 10 -2 21 5 14 2 25 -6 30 -21 13 -27 11 -34
-11 -5 -16 -10 -17 -30 -8 -20 9 -22 14 -14 31 8 15 8 22 -2 28 -25 16 -34 9
-53 -37z"/>
<path d="M2714 1957 c-76 -27 -94 -42 -94 -77 0 -32 35 -80 58 -80 9 0 52 12
95 26 84 28 105 50 93 98 -15 60 -53 68 -152 33z m114 -38 c-4 -13 -121 -59
-149 -59 -40 0 -16 19 54 43 83 28 100 31 95 16z"/>
<path d="M155 1925 c-3 -8 -7 -21 -9 -29 -6 -18 100 -56 156 -56 21 0 38 -4
38 -9 0 -17 -54 -16 -129 2 -40 10 -75 17 -76 15 -1 -2 -6 -17 -9 -34 l-7 -31
75 -21 c41 -12 81 -22 89 -22 14 0 32 -28 23 -37 -6 -7 -56 9 -52 16 3 4 -29
14 -70 23 -51 10 -74 12 -74 4 0 -6 -3 -21 -6 -33 -6 -21 -3 -23 37 -24 24 0
79 -6 122 -13 l77 -12 10 35 c5 19 6 38 2 42 -9 8 -95 35 -139 44 -18 4 -33
11 -33 16 0 12 37 12 60 -1 10 -5 43 -13 73 -16 l56 -7 9 34 c5 19 6 37 3 40
-3 4 -31 16 -61 27 -30 11 -79 30 -108 41 -45 18 -53 19 -57 6z"/>
<path d="M2865 1801 c-11 -4 -62 -16 -113 -26 l-92 -19 6 -35 c9 -57 13 -63
36 -59 17 2 22 9 20 24 -2 19 6 22 93 39 90 17 96 19 91 39 -3 12 -6 27 -6 34
0 14 -6 14 -35 3z"/>
<path d="M2085 1610 c-56 -8 -61 -13 -100 -91 -20 -38 -38 -69 -41 -69 -3 0
-4 33 -2 73 l3 72 -60 0 c-55 0 -61 -2 -73 -27 -7 -15 -18 -50 -25 -78 -13
-56 -27 -66 -27 -20 0 17 -5 30 -10 30 -11 0 -121 -70 -131 -83 -15 -21 -31
-193 -26 -274 5 -89 31 -173 51 -173 7 0 42 13 80 29 l69 29 28 73 c16 41 29
93 29 117 0 46 23 112 38 112 12 0 22 -25 22 -56 0 -31 14 -30 59 5 20 15 55
40 79 55 27 17 49 41 58 62 16 39 12 54 -15 54 -10 0 -24 7 -31 15 -18 21 40
53 113 61 50 6 61 11 87 43 17 19 30 39 30 44 0 9 -136 7 -205 -3z m135 -28
c0 -16 -41 -32 -79 -30 -30 1 -49 -6 -75 -26 -41 -31 -45 -55 -16 -81 30 -27
25 -48 -19 -83 -66 -53 -87 -59 -115 -33 -20 19 -28 21 -46 11 -27 -15 -50
-68 -50 -118 0 -81 -64 -192 -110 -192 -10 0 -20 -5 -22 -11 -2 -7 -13 -9 -25
-5 -40 13 -55 148 -33 300 11 73 26 98 73 122 21 11 32 12 48 4 28 -15 42 -2
69 65 22 55 40 70 71 60 14 -5 19 -16 19 -45 0 -22 8 -47 19 -61 17 -22 20
-22 43 -7 13 8 34 37 48 62 13 26 35 54 49 61 27 15 151 21 151 7z"/>
<path d="M1334 1469 c-58 -89 -108 -189 -128 -256 -6 -18 1 -27 41 -54 66 -44
114 -97 142 -158 14 -28 30 -51 36 -51 7 0 15 21 19 50 10 75 42 172 97 292
27 59 49 111 49 116 0 5 -16 13 -37 18 -43 11 -74 48 -82 101 -6 34 -10 38
-39 41 -30 3 -35 -1 -98 -99z m118 14 c13 -27 37 -57 55 -68 31 -19 41 -43 26
-59 -4 -3 -8 -13 -9 -21 -1 -8 -11 -34 -22 -58 -35 -75 -72 -177 -72 -197 0
-10 -4 -21 -8 -24 -13 -8 -182 158 -182 177 0 10 5 17 10 17 6 0 10 9 10 20 0
11 4 20 9 20 5 0 11 14 15 31 7 36 121 208 138 209 3 0 17 -21 30 -47z"/>
<path d="M1388 1383 c-71 -78 -76 -193 -9 -193 17 0 62 44 59 58 0 4 2 16 7
27 33 82 33 81 18 108 -18 34 -43 34 -75 0z m58 -6 c2 -7 -7 -38 -21 -68 -13
-30 -25 -62 -25 -71 0 -24 -18 -32 -36 -17 -19 16 -12 47 27 117 31 52 45 63
55 39z"/>
<path d="M1260 1549 c-89 -17 -88 -16 -95 -61 -9 -53 -22 -78 -39 -78 -18 0
-26 22 -26 67 0 33 -1 35 -27 28 -42 -10 -75 -28 -83 -45 -37 -81 -60 -103
-60 -56 0 36 -35 34 -89 -5 -32 -23 -41 -35 -35 -47 4 -9 14 -43 22 -74 13
-53 17 -58 42 -58 61 0 91 12 107 44 20 40 54 77 64 70 5 -3 9 -29 9 -58 l0
-54 46 -7 c26 -3 53 -9 60 -12 8 -3 18 6 25 24 44 103 92 198 128 252 22 34
41 67 41 72 0 11 -28 10 -90 -2z m22 -47 c-17 -41 -65 -128 -74 -133 -5 -3 -9
-9 -8 -13 5 -16 -33 -97 -49 -106 -28 -14 -61 -1 -67 29 -8 39 -25 69 -41 75
-23 9 -67 -20 -87 -57 -20 -38 -59 -55 -82 -36 -17 14 -35 76 -27 96 10 25 45
32 75 15 24 -14 29 -14 52 2 14 9 26 22 26 28 0 13 40 58 51 58 5 0 15 -13 24
-30 9 -17 27 -33 42 -36 22 -6 31 -1 54 26 16 18 26 37 23 42 -12 20 32 52 76
55 14 1 17 -3 12 -15z"/>
<path d="M99 1538 c0 -2 -1 -51 -2 -111 l-2 -107 133 0 132 0 0 110 0 110
-130 0 c-72 0 -130 -1 -131 -2z m211 -48 c14 -13 17 -58 11 -127 -1 -9 -26
-13 -90 -13 -101 0 -101 0 -101 85 0 49 2 54 28 63 40 15 134 10 152 -8z"/>
<path d="M2670 1430 l0 -110 130 0 130 0 0 110 0 110 -130 0 -130 0 0 -110z
m216 56 c15 -21 16 -106 2 -123 -13 -16 -168 -18 -168 -2 0 5 -4 7 -10 4 -6
-4 -10 17 -10 56 0 79 11 88 104 84 52 -2 73 -7 82 -19z"/>
<path d="M2131 1491 c-18 -11 -5 -31 20 -31 25 0 24 -22 -1 -45 -28 -26 -25
-32 20 -40 81 -14 100 14 55 85 -20 31 -32 40 -53 40 -15 0 -33 -4 -41 -9z"/>
<path d="M715 1309 c-49 -45 -105 -127 -105 -152 0 -10 1 -17 3 -17 1 0 45 15
97 34 l95 34 -1 40 c-1 43 -21 102 -35 102 -5 0 -29 -18 -54 -41z m55 -30 c20
-37 1 -56 -75 -75 -34 -8 -31 5 11 54 40 48 49 50 64 21z"/>
<path d="M2087 1316 c-153 -63 -222 -150 -267 -338 -26 -109 -40 -148 -63
-181 -14 -20 -16 -32 -9 -39 18 -18 103 51 139 112 18 29 46 95 64 147 17 52
45 113 63 135 43 56 124 101 188 103 58 2 74 18 58 59 -9 23 -15 26 -62 26
-33 0 -76 -10 -111 -24z m133 -15 c0 -5 -15 -12 -32 -16 -88 -17 -167 -68
-209 -133 -15 -24 -40 -81 -55 -126 -25 -75 -89 -194 -100 -184 -8 9 53 233
75 277 30 57 87 118 133 142 69 35 188 60 188 40z"/>
<path d="M1543 1243 c-3 -10 -17 -45 -29 -77 -28 -69 -29 -85 -10 -112 15 -19
15 -19 37 3 20 19 24 35 26 107 3 81 -9 121 -24 79z"/>
<path d="M2158 1220 c-44 -13 -88 -50 -119 -98 -16 -25 -27 -48 -25 -51 2 -3
57 -6 122 -6 107 0 119 2 122 18 7 37 -8 65 -40 76 l-33 12 24 18 c41 32 11
50 -51 31z m60 -116 c-3 -3 -39 -4 -79 -2 l-74 3 43 42 42 43 37 -40 c20 -23
33 -43 31 -46z"/>
<path d="M245 1188 c-91 -26 -108 -42 -102 -91 7 -48 32 -77 66 -77 40 0 53
13 46 43 -6 22 -12 26 -34 24 -14 -1 -27 3 -29 8 -5 14 147 55 154 43 8 -12
-14 -28 -40 -28 -15 0 -17 -5 -12 -32 3 -17 8 -33 10 -35 2 -2 21 4 42 14 35
16 39 22 42 60 3 35 -2 48 -22 68 -29 29 -30 29 -121 3z"/>
<path d="M2656 1178 c-21 -35 -39 -99 -30 -108 5 -4 57 -21 117 -37 l107 -30
8 31 c8 31 8 31 -42 44 -58 15 -60 17 -52 30 4 6 25 4 56 -6 55 -17 55 -18 63
19 6 24 3 26 -45 38 -35 8 -55 8 -62 1 -14 -14 -27 -13 -23 2 2 13 -39 38 -65
38 -10 0 -24 -10 -32 -22z m58 -44 c9 -3 16 -12 16 -20 0 -11 -7 -13 -27 -8
-35 8 -37 10 -28 23 7 12 17 14 39 5z"/>
<path d="M2589 1004 c-11 -26 -16 -50 -12 -54 4 -4 54 -28 110 -53 l101 -45
19 47 c10 25 19 49 21 53 2 4 -6 12 -17 18 -18 9 -23 7 -31 -15 -8 -22 -12
-24 -35 -13 -19 8 -23 16 -19 33 4 15 0 24 -12 29 -9 4 -18 5 -19 4 -1 -2 -6
-10 -11 -19 -7 -13 -15 -14 -33 -7 -19 6 -22 11 -13 20 17 17 15 26 -8 38 -18
10 -22 6 -41 -36z"/>
<path d="M350 1025 c-20 -7 -59 -24 -88 -39 -49 -25 -52 -28 -52 -65 0 -48 27
-83 62 -83 30 0 158 57 170 75 13 20 9 71 -7 94 -19 27 -43 32 -85 18z m60
-57 c0 -7 -30 -26 -67 -42 -95 -40 -93 -40 -93 -24 0 8 31 28 73 45 84 36 87
37 87 21z"/>
<path d="M1466 1024 c-10 -25 -7 -59 6 -72 18 -18 27 -15 39 14 7 20 6 32 -6
50 -18 28 -30 30 -39 8z"/>
<path d="M1551 1017 c-5 -14 -13 -41 -16 -60 -6 -29 -3 -37 16 -51 21 -14 24
-14 41 1 21 18 22 43 4 92 -15 43 -33 50 -45 18z"/>
<path d="M1688 958 c-32 -11 -32 -9 -16 -97 14 -79 21 -91 41 -60 22 34 59
148 52 160 -8 11 -42 10 -77 -3z"/>
<path d="M2521 873 c-23 -38 -48 -77 -56 -89 -15 -20 -13 -23 24 -48 22 -16
44 -26 48 -23 5 3 24 -8 43 -25 34 -29 34 -29 8 -24 -43 10 -41 -9 3 -32 43
-23 53 -22 69 8 8 16 -3 29 -80 90 -50 40 -90 74 -90 76 0 2 11 2 25 -2 15 -4
25 -2 25 5 0 19 21 12 98 -35 l76 -46 18 24 c9 12 18 25 18 28 0 3 -38 27 -85
54 -70 40 -83 51 -74 62 7 8 10 16 8 17 -2 1 -11 8 -20 15 -14 11 -22 3 -58
-55z"/>
<path d="M1450 901 c0 -53 69 -93 97 -56 19 27 17 32 -30 60 -56 32 -67 32
-67 -4z"/>
<path d="M1582 858 c-23 -39 -28 -57 -21 -70 12 -23 18 -22 52 7 22 20 27 32
27 70 0 61 -20 59 -58 -7z"/>
<path d="M466 892 c-3 -5 -44 -32 -93 -62 -48 -29 -90 -54 -92 -56 -2 -2 9
-24 23 -49 23 -39 30 -44 46 -35 22 12 26 25 10 35 -16 10 -5 20 79 70 l79 46
-16 29 c-17 30 -27 36 -36 22z"/>
<path d="M1467 823 c-17 -16 -4 -49 35 -85 23 -21 45 -38 50 -38 4 0 8 13 8
28 0 19 -12 40 -38 65 -40 39 -44 41 -55 30z"/>
<path d="M456 729 c-50 -38 -92 -72 -94 -74 -5 -5 47 -85 54 -85 3 0 13 5 24
12 17 11 18 14 4 29 -13 14 -7 22 61 74 41 31 75 60 75 64 0 3 -8 16 -18 28
l-17 22 -89 -70z"/>
<path d="M1606 767 c-21 -31 -31 -83 -17 -91 18 -12 51 32 51 68 0 44 -15 54
-34 23z"/>
<path d="M2408 715 c-16 -22 -15 -23 79 -99 88 -72 96 -76 109 -59 7 10 14 21
14 25 0 10 -72 58 -88 58 -15 0 -62 29 -62 39 0 4 8 7 18 7 32 -2 24 18 -15
35 -37 16 -39 16 -55 -6z"/>
<path d="M1480 702 c0 -34 41 -77 64 -69 25 10 19 33 -19 66 -20 17 -38 31
-40 31 -3 0 -5 -13 -5 -28z"/>
<path d="M531 625 l-84 -82 34 -41 c19 -23 36 -42 39 -42 3 1 14 8 25 16 19
14 19 16 3 25 -22 12 -23 32 -3 49 13 10 19 10 34 -4 16 -15 19 -15 31 -1 10
12 10 19 2 27 -27 27 6 61 35 37 11 -10 18 -9 31 4 15 16 14 20 -23 56 l-40
39 -84 -83z"/>
<path d="M2338 642 l-36 -37 82 -89 82 -89 43 42 c41 40 42 43 25 56 -16 11
-21 11 -36 -1 -14 -14 -18 -13 -37 2 -19 17 -19 19 -4 36 13 14 13 20 3 33
-12 14 -15 14 -32 -1 -17 -16 -19 -16 -32 2 -13 16 -12 21 0 35 12 14 12 18
-4 32 -17 16 -20 14 -54 -21z"/>
<path d="M1580 640 c-11 -21 -6 -40 10 -40 14 0 40 30 40 46 0 21 -38 17 -50
-6z"/>
<path d="M1475 640 c-10 -16 9 -33 30 -28 16 3 15 5 -3 21 -14 13 -22 15 -27
7z"/>
<path d="M1472 589 c6 -17 99 -32 112 -19 14 14 7 17 -58 25 -48 6 -58 5 -54
-6z"/>
<path d="M663 558 c-53 -58 -83 -104 -83 -130 0 -26 27 -58 49 -58 7 0 20 -9
29 -21 17 -20 18 -19 57 32 l39 52 -29 23 -30 24 -18 -40 c-11 -22 -26 -40
-34 -40 -21 0 -11 20 44 90 30 37 51 56 57 50 6 -6 3 -17 -7 -28 -16 -17 -16
-20 8 -42 27 -25 27 -25 44 7 17 34 13 62 -14 88 -35 35 -74 33 -112 -7z"/>
<path d="M2214 536 c-19 -19 -34 -40 -34 -48 0 -20 85 -134 114 -154 21 -13
29 -14 52 -2 15 7 36 25 47 40 18 24 18 30 7 58 -17 40 -25 44 -55 24 -23 -15
-24 -18 -10 -37 17 -24 20 -51 6 -45 -13 4 -101 126 -101 138 0 18 19 10 36
-15 19 -30 22 -30 52 -7 l22 17 -29 33 c-38 41 -64 41 -107 -2z"/>
<path d="M1482 548 c5 -15 52 -23 76 -12 14 6 13 8 -8 14 -41 13 -72 11 -68
-2z"/>
<path d="M1442 508 c-7 -7 -12 -30 -12 -52 0 -43 14 -76 26 -63 11 11 43 111
38 119 -8 12 -38 10 -52 -4z"/>
<path d="M791 420 c-29 -49 -56 -92 -62 -95 -18 -11 -9 -23 39 -53 48 -29 49
-29 61 -10 13 20 7 30 -22 41 -5 1 -3 15 4 29 10 23 15 26 32 16 16 -8 23 -7
34 8 12 17 11 20 -7 28 -24 11 -25 19 -5 36 12 10 18 10 30 0 13 -11 18 -10
30 6 20 27 19 30 -15 44 -16 7 -35 18 -41 26 -6 8 -15 14 -19 14 -4 0 -31 -40
-59 -90z"/>
<path d="M1507 466 c-22 -65 -3 -78 32 -22 26 42 27 66 2 66 -14 0 -23 -13
-34 -44z"/>
<path d="M2013 420 c-24 -11 -43 -22 -43 -25 0 -5 91 -205 97 -214 2 -4 63 19
63 24 0 2 -11 23 -25 46 -29 51 -30 59 -11 59 8 0 22 -20 32 -45 18 -47 29
-53 58 -32 17 13 17 15 -4 56 -12 24 -30 46 -41 48 -15 4 -17 8 -8 19 8 10 6
21 -8 46 -23 40 -51 44 -110 18z m62 -51 c9 -29 -4 -38 -21 -15 -18 25 -18 36
0 36 8 0 18 -9 21 -21z"/>
<path d="M1893 373 c-24 -8 -43 -18 -43 -23 0 -16 62 -205 70 -214 8 -8 110
20 110 30 0 3 -5 14 -10 25 -9 16 -15 17 -31 8 -24 -13 -25 -12 -34 24 -6 23
-4 27 15 27 16 0 20 4 16 16 -3 9 -6 20 -6 25 0 5 -11 7 -24 3 -16 -4 -25 -1
-30 11 -8 21 0 35 20 35 15 0 17 9 8 34 -7 19 -7 19 -61 -1z"/>
<path d="M985 350 c-11 -12 -16 -29 -13 -45 4 -16 1 -25 -8 -25 -14 0 -44 -38
-44 -56 0 -26 36 -55 68 -56 17 -1 32 -4 32 -8 0 -6 44 -30 56 -30 2 0 2 11
-2 25 -4 15 -2 25 5 25 5 0 15 9 21 20 10 19 9 20 -14 14 -22 -5 -26 -3 -26
15 0 12 9 35 21 50 17 24 19 32 9 50 -11 21 -47 41 -74 41 -7 0 -21 -9 -31
-20z m63 -37 c-5 -25 -28 -28 -28 -4 0 12 6 21 16 21 9 0 14 -7 12 -17z m-20
-51 c2 -12 -1 -22 -7 -22 -6 0 -11 -9 -11 -20 0 -11 -7 -20 -15 -20 -8 0 -15
9 -15 20 0 11 7 20 15 20 8 0 15 5 15 10 0 6 -4 10 -10 10 -5 0 -7 7 -3 15 8
22 27 13 31 -13z"/>
<path d="M1765 338 c-22 -6 -41 -11 -42 -12 -6 -5 46 -231 53 -231 5 0 31 4
57 8 42 7 48 11 45 30 -2 17 -9 22 -30 20 -19 -1 -28 4 -32 20 -9 34 -8 37 15
37 15 0 20 5 17 23 -2 15 -9 21 -22 19 -19 -4 -36 13 -36 36 0 6 9 12 20 12
15 0 20 7 20 25 0 27 -5 28 -65 13z"/>
<path d="M1238 320 c-22 -17 -28 -34 -39 -105 -13 -93 -9 -108 40 -126 42 -16
81 -1 97 37 18 42 12 54 -27 54 -24 0 -29 -4 -29 -24 0 -27 -15 -42 -25 -27
-7 13 15 142 28 158 16 22 26 4 16 -29 -10 -37 -13 -34 29 -41 l32 -6 0 43 c0
49 -17 70 -66 80 -22 5 -37 2 -56 -14z"/>
<path d="M1587 313 c-38 -4 -39 -5 -33 -36 3 -18 8 -71 12 -119 l7 -88 34 0
c33 0 34 1 29 33 -11 65 -11 80 0 84 11 4 24 -40 24 -83 0 -20 5 -24 30 -24
l31 0 -7 53 c-4 28 -14 57 -22 63 -11 8 -12 13 -4 18 17 11 15 72 -4 90 -15
16 -22 16 -97 9z m57 -49 c10 -27 7 -44 -9 -44 -10 0 -15 10 -15 30 0 32 14
40 24 14z"/>
<path d="M1395 213 c-9 -54 -19 -108 -22 -120 -5 -21 -1 -23 31 -23 32 0 36 3
36 26 0 31 23 28 28 -4 3 -17 10 -22 35 -22 l32 0 -14 120 -14 120 -47 0 -48
0 -17 -97z m78 -10 c-4 -33 -10 -53 -18 -53 -16 0 -16 111 0 122 16 12 23 -14
18 -69z"/>
</g>
</svg>
